<svg xmlns="http://www.w3.org/2000/svg" viewBox="0 0 1350.01 1651.89"><defs><style>.cls-1{fill:#5d6366;}.cls-2{fill:#222629;}.cls-11,.cls-13,.cls-2,.cls-4,.cls-5,.cls-8,.cls-9{stroke:#000;}.cls-10,.cls-11,.cls-13,.cls-2,.cls-4,.cls-5,.cls-8,.cls-9{stroke-miterlimit:10;}.cls-3{fill:#64686b;}.cls-4{fill:#abb3b7;}.cls-5{fill:#1c2021;}.cls-6{fill:#5d6566;}.cls-7{fill:#a0a9aa;}.cls-8{fill:#7c8489;}.cls-11,.cls-9{fill:#4d565b;}.cls-9{stroke-width:15px;}.cls-10{fill:none;stroke:#929a9e;stroke-width:20px;}.cls-11{stroke-width:10px;}.cls-12{fill:#959b9e;}.cls-13{fill:#414547;}</style></defs><title>motherboard</title><g id="Camada_4" data-name="Camada 4"><rect class="cls-1" x="753.6" y="0.5" width="596.41" height="1650.89" rx="152.56"/></g><g id="Camada_2" data-name="Camada 2"><rect class="cls-2" x="793.83" y="0.5" width="520.78" height="1650.89" rx="64.44"/><rect class="cls-2" x="0.5" y="0.5" width="703.33" height="1096.56" rx="65.06"/><path class="cls-3" d="M967.58,669.11H607.19a64.44,64.44,0,0,0-64.44-64.44V272.48A64.44,64.44,0,0,0,607.19,208H967.58A64.45,64.45,0,0,0,1032,272.48V604.67A64.45,64.45,0,0,0,967.58,669.11Z" transform="translate(266.83 -134.06)"/><path class="cls-3" d="M965.17,1185.52H604.78a64.44,64.44,0,0,0-64.45-64.45V788.89a64.44,64.44,0,0,0,64.45-64.45H965.17a64.44,64.44,0,0,0,64.44,64.45v332.18A64.44,64.44,0,0,0,965.17,1185.52Z" transform="translate(266.83 -134.06)"/><path class="cls-3" d="M965.17,1709.74H604.78a64.45,64.45,0,0,0-64.45-64.45V1313.11a64.44,64.44,0,0,0,64.45-64.44H965.17a64.44,64.44,0,0,0,64.44,64.44v332.18A64.45,64.45,0,0,0,965.17,1709.74Z" transform="translate(266.83 -134.06)"/><rect class="cls-2" x="0.5" y="1152.74" width="703.33" height="498.65" rx="65.06"/><path class="cls-4" d="M333.6,593.36H78.39L13.33,528.31V273.09l65.06-65H333.6l65.06,65V528.31Z" transform="translate(266.83 -134.06)"/><path class="cls-5" d="M316.77,576.53H95.22a65.06,65.06,0,0,0-65.06-65V289.92a65.05,65.05,0,0,0,65.06-65.05H316.77a65.05,65.05,0,0,0,65.06,65.05V511.48A65.06,65.06,0,0,0,316.77,576.53Z" transform="translate(266.83 -134.06)"/><circle class="cls-5" cx="472.83" cy="266.65" r="163.65"/><polygon class="cls-6" points="18.45 12.83 218.19 125.66 218.19 417.11 19.13 485.06 18.45 12.83"/><polygon class="cls-7" points="18.45 12.83 252.07 108.73 266.83 472.36 188.54 430.3 109.75 454.13 156.78 152.59 18.45 12.83"/><path class="cls-4" d="M376,1755H-208.51l-32.8-32.8v-66.55l32.8-32.8H376l32.8,32.8v66.55Z" transform="translate(266.83 -134.06)"/><path class="cls-4" d="M376,1601H-208.51l-32.8-32.8v-66.55l32.8-32.8H376l32.8,32.8v66.55Z" transform="translate(266.83 -134.06)"/><path class="cls-5" d="M-116,1747.21h-73a20,20,0,0,0-20.05-20v-73a20.06,20.06,0,0,0,20.05-20.06h73a20.06,20.06,0,0,0,20,20.06v73A20,20,0,0,0-116,1747.21Z" transform="translate(266.83 -134.06)"/><path class="cls-5" d="M22.29,1745.49h-73a20,20,0,0,0-20-20v-73a20,20,0,0,0,20-20.06h73a20.06,20.06,0,0,0,20.05,20.06v73A20,20,0,0,0,22.29,1745.49Z" transform="translate(266.83 -134.06)"/><path class="cls-5" d="M225,1593.51h-73a20.05,20.05,0,0,0-20.05-20v-73a20.05,20.05,0,0,0,20.05-20h73a20.05,20.05,0,0,0,20.05,20v73A20.05,20.05,0,0,0,225,1593.51Z" transform="translate(266.83 -134.06)"/><path class="cls-5" d="M363.28,1591.79h-73a20,20,0,0,0-20.05-20v-73a20.05,20.05,0,0,0,20.05-20h73a20.05,20.05,0,0,0,20.05,20v73A20,20,0,0,0,363.28,1591.79Z" transform="translate(266.83 -134.06)"/></g><g id="Camada_3" data-name="Camada 3"><circle class="cls-8" cx="1054.22" cy="825.94" r="233.33"/><circle class="cls-8" cx="1054.22" cy="303.94" r="233.33"/><circle class="cls-8" cx="1054.22" cy="1348.39" r="233.33"/><circle class="cls-9" cx="1054.22" cy="303.94" r="93.33"/><circle class="cls-9" cx="1054.22" cy="825.94" r="93.33"/><circle class="cls-9" cx="1054.22" cy="1348.39" r="93.33"/><circle class="cls-10" cx="1054.22" cy="1349.06" r="234.44"/><circle class="cls-10" cx="1054.22" cy="824.83" r="234.44"/><circle class="cls-10" cx="1054.22" cy="303.94" r="234.44"/><circle class="cls-11" cx="1054.22" cy="303.94" r="68"/><circle class="cls-11" cx="1054.22" cy="824.83" r="68"/><circle class="cls-11" cx="1054.22" cy="1347.72" r="68"/><circle class="cls-12" cx="825.9" cy="89.67" r="19.06"/><circle class="cls-12" cx="826.23" cy="1032.4" r="19.06"/><circle class="cls-12" cx="828.65" cy="518.22" r="19.06"/><circle class="cls-12" cx="1277.38" cy="1032.4" r="19.06"/><circle class="cls-12" cx="826.23" cy="609.45" r="19.06"/><circle class="cls-12" cx="1277.38" cy="518.22" r="19.06"/><circle class="cls-12" cx="1274.97" cy="609.45" r="19.06"/><circle class="cls-12" cx="1279.8" cy="93.05" r="19.06"/><circle class="cls-12" cx="826.23" cy="1556.62" r="19.06"/><circle class="cls-12" cx="1277.38" cy="1556.62" r="19.06"/><circle class="cls-12" cx="826.23" cy="1133.67" r="19.06"/><circle class="cls-12" cx="1274.97" cy="1133.67" r="19.06"/><rect class="cls-4" x="6.38" y="506.4" width="691.58" height="115.76" rx="27.45"/><rect class="cls-4" x="6.38" y="688.71" width="691.58" height="115.76" rx="27.45"/><rect class="cls-4" x="6.38" y="871.02" width="691.58" height="115.76" rx="27.45"/><rect class="cls-2" x="5.5" y="527.52" width="691.58" height="73.51"/><rect class="cls-2" x="5.5" y="709.83" width="691.58" height="73.51"/><rect class="cls-2" x="6.38" y="892.15" width="691.58" height="73.51"/><rect class="cls-13" x="5.77" y="1206.21" width="691.58" height="73.51" rx="13.01"/></g></svg>